<svg version="1.1" viewBox="0.0 0.0 960.0 540.0" fill="none" stroke="none" stroke-linecap="square" stroke-miterlimit="10" xmlns:xlink="http://www.w3.org/1999/xlink" xmlns="http://www.w3.org/2000/svg"><clipPath id="g13f84f0ee1a_0_1.0"><path d="m0 0l960.0 0l0 540.0l-960.0 0l0 -540.0z" clip-rule="nonzero"/></clipPath><g clip-path="url(#g13f84f0ee1a_0_1.0)"><path fill="#150f2a" d="m0 0l960.0 0l0 540.0l-960.0 0z" fill-rule="evenodd"/><path fill="#a249de" fill-opacity="0.4048" d="m725.50397 116.33071l0 0c0 -38.633842 31.495178 -69.95276 70.346436 -69.95276l0 0c18.657043 0 36.549927 7.3700027 49.74243 20.488686c13.192566 13.1186905 20.604004 30.911446 20.604004 49.464073l0 0c0 38.633842 -31.495178 69.95275 -70.346436 69.95275l0 0c-38.851257 0 -70.346436 -31.318909 -70.346436 -69.95275z" fill-rule="evenodd"/><path fill="#a249de" fill-opacity="0.4048" d="m607.59845 383.7244l0 0c0 -65.19568 59.88806 -118.04724 133.76373 -118.04724l0 0c73.87573 0 133.7638 52.851562 133.7638 118.04724l0 0c0 65.19571 -59.88806 118.04727 -133.7638 118.04727l0 0c-73.87567 0 -133.76373 -52.851562 -133.76373 -118.04727z" fill-rule="evenodd"/><path fill="#a249de" fill-opacity="0.4048" d="m128.68242 257.81366l0 0c0 -128.0605 116.53287 -231.87402 260.28345 -231.87402l0 0c143.75061 0 260.28345 103.81352 260.28345 231.87402l0 0c0 128.06049 -116.53284 231.874 -260.28345 231.874l0 0c-143.7506 0 -260.28345 -103.81351 -260.28345 -231.874z" fill-rule="evenodd"/><path fill="#a249de" fill-opacity="0.4048" d="m27.564304 456.30972l0 0c0 -31.484589 25.502144 -57.007874 56.96063 -57.007874l0 0c15.106903 0 29.595062 6.0061646 40.277252 16.697205c10.68219 10.69104 16.68338 25.191223 16.68338 40.31067l0 0c0 31.484558 -25.502144 57.007843 -56.960632 57.007843l0 0c-31.458485 0 -56.96063 -25.523285 -56.96063 -57.007843z" fill-rule="evenodd"/><path fill="#ff00ff" fill-opacity="0.5476" d="m200.21129 368.2467l0 0c0 -141.73277 117.56932 -256.6299 262.59845 -256.6299l0 0c69.64542 0 136.43839 27.037712 185.68509 75.16517c49.246765 48.12744 76.91333 113.40227 76.91333 181.46474l0 0c0 141.73282 -117.569336 256.62994 -262.59842 256.62994l0 0c-145.02911 0 -262.59845 -114.897125 -262.59845 -256.62994z" fill-rule="evenodd"/><path fill="#eeeeee" fill-opacity="0.9583" d="m45.59055 255.06561l7.4414215 -1.5979462l1.59795 -7.4414215l1.59795 7.4414215l7.4414215 1.5979462l-7.4414215 1.5979614l-1.59795 7.4414062l-1.59795 -7.4414062z" fill-rule="evenodd"/><path stroke="#595959" stroke-width="1.0" stroke-linejoin="round" stroke-linecap="butt" d="m45.59055 255.06561l7.4414215 -1.5979462l1.59795 -7.4414215l1.59795 7.4414215l7.4414215 1.5979462l-7.4414215 1.5979614l-1.59795 7.4414062l-1.59795 -7.4414062z" fill-rule="evenodd"/><path fill="#eeeeee" fill-opacity="0.9583" d="m61.59055 271.0656l7.4414253 -1.5979309l1.5979462 -7.441437l1.5979538 7.441437l7.441414 1.5979309l-7.441414 1.5979614l-1.5979538 7.4414062l-1.5979462 -7.4414062z" fill-rule="evenodd"/><path stroke="#595959" stroke-width="1.0" stroke-linejoin="round" stroke-linecap="butt" d="m61.59055 271.0656l7.4414253 -1.5979309l1.5979462 -7.441437l1.5979538 7.441437l7.441414 1.5979309l-7.441414 1.5979614l-1.5979538 7.4414062l-1.5979462 -7.4414062z" fill-rule="evenodd"/><path fill="#eeeeee" fill-opacity="0.9583" d="m894.27295 48.897636l7.4414673 -1.59795l1.5979004 -7.4414177l1.5979614 7.4414177l7.4414062 1.59795l-7.4414062 1.59795l-1.5979614 7.4414215l-1.5979004 -7.4414215z" fill-rule="evenodd"/><path stroke="#595959" stroke-width="1.0" stroke-linejoin="round" stroke-linecap="butt" d="m894.27295 48.897636l7.4414673 -1.59795l1.5979004 -7.4414177l1.5979614 7.4414177l7.4414062 1.59795l-7.4414062 1.59795l-1.5979614 7.4414215l-1.5979004 -7.4414215z" fill-rule="evenodd"/><path fill="#eeeeee" fill-opacity="0.9583" d="m696.47504 116.33071l7.4414673 -1.5979538l1.5979614 -7.4414215l1.5979004 7.4414215l7.4414673 1.5979538l-7.4414673 1.5979462l-1.5979004 7.4414215l-1.5979614 -7.4414215z" fill-rule="evenodd"/><path stroke="#595959" stroke-width="1.0" stroke-linejoin="round" stroke-linecap="butt" d="m696.47504 116.33071l7.4414673 -1.5979538l1.5979614 -7.4414215l1.5979004 7.4414215l7.4414673 1.5979538l-7.4414673 1.5979462l-1.5979004 7.4414215l-1.5979614 -7.4414215z" fill-rule="evenodd"/><path fill="#eeeeee" fill-opacity="0.9583" d="m170.9029 484.13123l7.4414215 -1.5979309l1.5979462 -7.441437l1.5979462 7.441437l7.4414215 1.5979309l-7.4414215 1.5979614l-1.5979462 7.4414062l-1.5979462 -7.4414062z" fill-rule="evenodd"/><path stroke="#595959" stroke-width="1.0" stroke-linejoin="round" stroke-linecap="butt" d="m170.9029 484.13123l7.4414215 -1.5979309l1.5979462 -7.441437l1.5979462 7.441437l7.4414215 1.5979309l-7.4414215 1.5979614l-1.5979462 7.4414062l-1.5979462 -7.4414062z" fill-rule="evenodd"/><path fill="#eeeeee" fill-opacity="0.9583" d="m580.7008 22.887138l6.546875 -1.0968494l1.4058838 -5.107874l1.4058228 5.107874l6.546936 1.0968494l-6.546936 1.0968513l-1.4058228 5.107874l-1.4058838 -5.107874z" fill-rule="evenodd"/><path stroke="#595959" stroke-width="1.0" stroke-linejoin="round" stroke-linecap="butt" d="m580.7008 22.887138l6.546875 -1.0968494l1.4058838 -5.107874l1.4058228 5.107874l6.546936 1.0968494l-6.546936 1.0968513l-1.4058228 5.107874l-1.4058838 -5.107874z" fill-rule="evenodd"/><path fill="#eeeeee" fill-opacity="0.9583" d="m918.18634 522.35693l7.4414062 -1.5979004l1.5979614 -7.4414673l1.5979614 7.4414673l7.4414062 1.5979004l-7.4414062 1.5979614l-1.5979614 7.4414062l-1.5979614 -7.4414062z" fill-rule="evenodd"/><path stroke="#595959" stroke-width="1.0" stroke-linejoin="round" stroke-linecap="butt" d="m918.18634 522.35693l7.4414062 -1.5979004l1.5979614 -7.4414673l1.5979614 7.4414673l7.4414062 1.5979004l-7.4414062 1.5979614l-1.5979614 7.4414062l-1.5979614 -7.4414062z" fill-rule="evenodd"/><path fill="#eeeeee" fill-opacity="0.9583" d="m8.6482935 514.0525l7.4414206 -1.5979614l1.59795 -7.4414062l1.59795 7.4414062l7.4414196 1.5979614l-7.4414196 1.5979614l-1.59795 7.4414062l-1.59795 -7.4414062z" fill-rule="evenodd"/><path stroke="#595959" stroke-width="1.0" stroke-linejoin="round" stroke-linecap="butt" d="m8.6482935 514.0525l7.4414206 -1.5979614l1.59795 -7.4414062l1.59795 7.4414062l7.4414196 1.5979614l-7.4414196 1.5979614l-1.59795 7.4414062l-1.59795 -7.4414062z" fill-rule="evenodd"/><path fill="#eeeeee" fill-opacity="0.9583" d="m848.1181 252.98688l7.4414062 -1.5979462l1.5979614 -7.4414215l1.5979614 7.4414215l7.4414062 1.5979462l-7.4414062 1.5979462l-1.5979614 7.4414215l-1.5979614 -7.4414215z" fill-rule="evenodd"/><path stroke="#595959" stroke-width="1.0" stroke-linejoin="round" stroke-linecap="butt" d="m848.1181 252.98688l7.4414062 -1.5979462l1.5979614 -7.4414215l1.5979614 7.4414215l7.4414062 1.5979462l-7.4414062 1.5979462l-1.5979614 7.4414215l-1.5979614 -7.4414215z" fill-rule="evenodd"/><path fill="#eeeeee" fill-opacity="0.9583" d="m445.83466 13.506561l7.4414062 -1.59795l1.5979614 -7.4414196l1.5979309 7.4414196l7.441437 1.59795l-7.441437 1.59795l-1.5979309 7.4414196l-1.5979614 -7.4414196z" fill-rule="evenodd"/><path stroke="#595959" stroke-width="1.0" stroke-linejoin="round" stroke-linecap="butt" d="m445.83466 13.506561l7.4414062 -1.59795l1.5979614 -7.4414196l1.5979309 7.4414196l7.441437 1.59795l-7.441437 1.59795l-1.5979309 7.4414196l-1.5979614 -7.4414196z" fill-rule="evenodd"/><path fill="#00ffff" d="m80.70079 347.03412l0 0c0 -6.2969055 5.2456665 -11.401581 11.71653 -11.401581l0 0c3.1074219 0 6.08757 1.2012329 8.284843 3.339447c2.197281 2.138214 3.431694 5.0382385 3.431694 8.062134l0 0c0 6.2969055 -5.245674 11.401581 -11.716537 11.401581l0 0c-6.4708633 0 -11.71653 -5.1046753 -11.71653 -11.401581z" fill-rule="evenodd"/><path stroke="#595959" stroke-width="1.0" stroke-linejoin="round" stroke-linecap="butt" d="m80.70079 347.03412l0 0c0 -6.2969055 5.2456665 -11.401581 11.71653 -11.401581l0 0c3.1074219 0 6.08757 1.2012329 8.284843 3.339447c2.197281 2.138214 3.431694 5.0382385 3.431694 8.062134l0 0c0 6.2969055 -5.245674 11.401581 -11.716537 11.401581l0 0c-6.4708633 0 -11.71653 -5.1046753 -11.71653 -11.401581z" fill-rule="evenodd"/><path fill="#00ffff" d="m784.13385 221.55118l0 0c0 -6.2969055 5.2456665 -11.401566 11.716553 -11.401566l0 0c3.1074219 0 6.0875854 1.2012329 8.284851 3.3394318c2.1972656 2.138214 3.4317017 5.038254 3.4317017 8.062134l0 0c0 6.296921 -5.2457275 11.401581 -11.716553 11.401581l0 0c-6.470886 0 -11.716553 -5.10466 -11.716553 -11.401581z" fill-rule="evenodd"/><path stroke="#595959" stroke-width="1.0" stroke-linejoin="round" stroke-linecap="butt" d="m784.13385 221.55118l0 0c0 -6.2969055 5.2456665 -11.401566 11.716553 -11.401566l0 0c3.1074219 0 6.0875854 1.2012329 8.284851 3.3394318c2.1972656 2.138214 3.4317017 5.038254 3.4317017 8.062134l0 0c0 6.296921 -5.2457275 11.401581 -11.716553 11.401581l0 0c-6.470886 0 -11.716553 -5.10466 -11.716553 -11.401581z" fill-rule="evenodd"/><path fill="#00ffff" d="m112.70079 384.23096l0 0c0 -3.4267578 3.5605698 -6.204712 7.952751 -6.204712l0 0c4.392189 0 7.952751 2.777954 7.952751 6.204712l0 0c0 3.4267883 -3.5605621 6.2047424 -7.952751 6.2047424l0 0c-4.3921814 0 -7.952751 -2.777954 -7.952751 -6.2047424z" fill-rule="evenodd"/><path stroke="#595959" stroke-width="1.0" stroke-linejoin="round" stroke-linecap="butt" d="m112.70079 384.23096l0 0c0 -3.4267578 3.5605698 -6.204712 7.952751 -6.204712l0 0c4.392189 0 7.952751 2.777954 7.952751 6.204712l0 0c0 3.4267883 -3.5605621 6.2047424 -7.952751 6.2047424l0 0c-4.3921814 0 -7.952751 -2.777954 -7.952751 -6.2047424z" fill-rule="evenodd"/><path fill="#00ffff" d="m649.2493 46.062992l0 0c0 -3.426773 3.560608 -6.2047234 7.952759 -6.2047234l0 0c4.392212 0 7.952759 2.7779503 7.952759 6.2047234l0 0c0 3.426773 -3.5605469 6.2047234 -7.952759 6.2047234l0 0c-4.392151 0 -7.952759 -2.7779503 -7.952759 -6.2047234z" fill-rule="evenodd"/><path stroke="#595959" stroke-width="1.0" stroke-linejoin="round" stroke-linecap="butt" d="m649.2493 46.062992l0 0c0 -3.426773 3.560608 -6.2047234 7.952759 -6.2047234l0 0c4.392212 0 7.952759 2.7779503 7.952759 6.2047234l0 0c0 3.426773 -3.5605469 6.2047234 -7.952759 6.2047234l0 0c-4.392151 0 -7.952759 -2.7779503 -7.952759 -6.2047234z" fill-rule="evenodd"/><path fill="#00ffff" d="m128.6063 519.52234l0 0c0 -3.4268188 3.5605774 -6.204773 7.952759 -6.204773l0 0c4.3921967 0 7.952759 2.777954 7.952759 6.204773l0 0c0 3.4267578 -3.5605621 6.204712 -7.952759 6.204712l0 0c-4.3921814 0 -7.952759 -2.777954 -7.952759 -6.204712z" fill-rule="evenodd"/><path stroke="#595959" stroke-width="1.0" stroke-linejoin="round" stroke-linecap="butt" d="m128.6063 519.52234l0 0c0 -3.4268188 3.5605774 -6.204773 7.952759 -6.204773l0 0c4.3921967 0 7.952759 2.777954 7.952759 6.204773l0 0c0 3.4267578 -3.5605621 6.204712 -7.952759 6.204712l0 0c-4.3921814 0 -7.952759 -2.777954 -7.952759 -6.204712z" fill-rule="evenodd"/><path fill="#00ffff" d="m144.51181 30.175854l0 0c0 -2.3396015 3.5605774 -4.2362213 7.952759 -4.2362213l0 0c4.3921814 0 7.952759 1.8966198 7.952759 4.2362213l0 0c0 2.3395996 -3.5605774 4.2362213 -7.952759 4.2362213l0 0c-4.3921814 0 -7.952759 -1.8966217 -7.952759 -4.2362213z" fill-rule="evenodd"/><path stroke="#595959" stroke-width="1.0" stroke-linejoin="round" stroke-linecap="butt" d="m144.51181 30.175854l0 0c0 -2.3396015 3.5605774 -4.2362213 7.952759 -4.2362213l0 0c4.3921814 0 7.952759 1.8966198 7.952759 4.2362213l0 0c0 2.3395996 -3.5605774 4.2362213 -7.952759 4.2362213l0 0c-4.3921814 0 -7.952759 -1.8966217 -7.952759 -4.2362213z" fill-rule="evenodd"/><path fill="#00ffff" d="m745.7848 514.0525l0 0c0 -3.4267578 3.5605469 -6.204712 7.952759 -6.204712l0 0c4.392151 0 7.952759 2.777954 7.952759 6.204712l0 0c0 3.4267578 -3.560608 6.204712 -7.952759 6.204712l0 0c-4.392212 0 -7.952759 -2.777954 -7.952759 -6.204712z" fill-rule="evenodd"/><path stroke="#595959" stroke-width="1.0" stroke-linejoin="round" stroke-linecap="butt" d="m745.7848 514.0525l0 0c0 -3.4267578 3.5605469 -6.204712 7.952759 -6.204712l0 0c4.392151 0 7.952759 2.777954 7.952759 6.204712l0 0c0 3.4267578 -3.560608 6.204712 -7.952759 6.204712l0 0c-4.392212 0 -7.952759 -2.777954 -7.952759 -6.204712z" fill-rule="evenodd"/><path fill="#00ffff" d="m603.79266 101.08662l0 0c0 -3.4267807 3.5605469 -6.204727 7.952759 -6.204727l0 0c4.392151 0 7.952759 2.7779465 7.952759 6.204727l0 0c0 3.426773 -3.560608 6.2047195 -7.952759 6.2047195l0 0c-4.392212 0 -7.952759 -2.7779465 -7.952759 -6.2047195z" fill-rule="evenodd"/><path stroke="#595959" stroke-width="1.0" stroke-linejoin="round" stroke-linecap="butt" d="m603.79266 101.08662l0 0c0 -3.4267807 3.5605469 -6.204727 7.952759 -6.204727l0 0c4.392151 0 7.952759 2.7779465 7.952759 6.204727l0 0c0 3.426773 -3.560608 6.2047195 -7.952759 6.2047195l0 0c-4.392212 0 -7.952759 -2.7779465 -7.952759 -6.2047195z" fill-rule="evenodd"/><path fill="#00ffff" d="m859.22046 22.887138l0 0c0 -3.426773 3.560608 -6.2047234 7.952759 -6.2047234l0 0c4.392212 0 7.952759 2.7779503 7.952759 6.2047234l0 0c0 3.426775 -3.5605469 6.2047253 -7.952759 6.2047253l0 0c-4.392151 0 -7.952759 -2.7779503 -7.952759 -6.2047253z" fill-rule="evenodd"/><path stroke="#595959" stroke-width="1.0" stroke-linejoin="round" stroke-linecap="butt" d="m859.22046 22.887138l0 0c0 -3.426773 3.560608 -6.2047234 7.952759 -6.2047234l0 0c4.392212 0 7.952759 2.7779503 7.952759 6.2047234l0 0c0 3.426775 -3.5605469 6.2047253 -7.952759 6.2047253l0 0c-4.392151 0 -7.952759 -2.7779503 -7.952759 -6.2047253z" fill-rule="evenodd"/><path fill="#00ffff" d="m17.1916 226.74803l0 0c0 -3.426773 3.5605698 -6.204727 7.952757 -6.204727l0 0c4.392185 0 7.952757 2.777954 7.952757 6.204727l0 0c0 3.426773 -3.5605717 6.204727 -7.952757 6.204727l0 0c-4.392187 0 -7.952757 -2.777954 -7.952757 -6.204727z" fill-rule="evenodd"/><path stroke="#595959" stroke-width="1.0" stroke-linejoin="round" stroke-linecap="butt" d="m17.1916 226.74803l0 0c0 -3.426773 3.5605698 -6.204727 7.952757 -6.204727l0 0c4.392185 0 7.952757 2.777954 7.952757 6.204727l0 0c0 3.426773 -3.5605717 6.204727 -7.952757 6.204727l0 0c-4.392187 0 -7.952757 -2.777954 -7.952757 -6.204727z" fill-rule="evenodd"/><path fill="#eeeeee" fill-opacity="0.9583" d="m27.564304 30.175854l7.4414215 -1.59795l1.59795 -7.4414215l1.59795 7.4414215l7.4414177 1.59795l-7.4414177 1.59795l-1.59795 7.4414177l-1.59795 -7.4414177z" fill-rule="evenodd"/><path stroke="#595959" stroke-width="1.0" stroke-linejoin="round" stroke-linecap="butt" d="m27.564304 30.175854l7.4414215 -1.59795l1.59795 -7.4414215l1.59795 7.4414215l7.4414177 1.59795l-7.4414177 1.59795l-1.59795 7.4414177l-1.59795 -7.4414177z" fill-rule="evenodd"/><path fill="#eeeeee" fill-opacity="0.9583" d="m75.485565 143.2231l7.4414215 -1.5979462l1.5979462 -7.4414215l1.5979538 7.4414215l7.4414215 1.5979462l-7.4414215 1.5979462l-1.5979538 7.4414215l-1.5979462 -7.4414215z" fill-rule="evenodd"/><path stroke="#595959" stroke-width="1.0" stroke-linejoin="round" stroke-linecap="butt" d="m75.485565 143.2231l7.4414215 -1.5979462l1.5979462 -7.4414215l1.5979538 7.4414215l7.4414215 1.5979462l-7.4414215 1.5979462l-1.5979538 7.4414215l-1.5979462 -7.4414215z" fill-rule="evenodd"/><path fill="#00ffff" d="m36.52231 74.031494l0 0c0 -3.426773 3.5605698 -6.2047195 7.952759 -6.2047195l0 0c4.392185 0 7.952755 2.7779465 7.952755 6.2047195l0 0c0 3.426773 -3.5605698 6.204727 -7.952755 6.204727l0 0c-4.392189 0 -7.952759 -2.777954 -7.952759 -6.204727z" fill-rule="evenodd"/><path stroke="#595959" stroke-width="1.0" stroke-linejoin="round" stroke-linecap="butt" d="m36.52231 74.031494l0 0c0 -3.426773 3.5605698 -6.2047195 7.952759 -6.2047195l0 0c4.392185 0 7.952755 2.7779465 7.952755 6.2047195l0 0c0 3.426773 -3.5605698 6.204727 -7.952755 6.204727l0 0c-4.392189 0 -7.952759 -2.777954 -7.952759 -6.204727z" fill-rule="evenodd"/><path fill="#00ffff" d="m902.2808 431.16534l0 0c0 -3.4267578 3.560608 -6.204712 7.952759 -6.204712l0 0c4.392212 0 7.952759 2.777954 7.952759 6.204712l0 0c0 3.4267883 -3.5605469 6.2047424 -7.952759 6.2047424l0 0c-4.392151 0 -7.952759 -2.777954 -7.952759 -6.2047424z" fill-rule="evenodd"/><path stroke="#595959" stroke-width="1.0" stroke-linejoin="round" stroke-linecap="butt" d="m902.2808 431.16534l0 0c0 -3.4267578 3.560608 -6.204712 7.952759 -6.204712l0 0c4.392212 0 7.952759 2.777954 7.952759 6.204712l0 0c0 3.4267883 -3.5605469 6.2047424 -7.952759 6.2047424l0 0c-4.392151 0 -7.952759 -2.777954 -7.952759 -6.2047424z" fill-rule="evenodd"/></g></svg>